# xmcd
#
# Track frame offsets: 
#        150
#        18159
#        37822
#        56241
#        72074
#        94538
#        114867
#        136223
#        150306
#        172036
#
# Disc length: 2533 seconds
#
# Revision: 0
# Processed by: cddbd v1.5.1PL2 Copyright (c) Steve Scherf et al.
# Submitted via: ExactAudioCopy v0.95a5
#
DISCID=6f09e30a
DTITLE=Linda Rondstadt, Dolly Parton, Emmylou Harris - Trio II
DYEAR=1999
DGENRE=Country
TTITLE0=Lover's Return
TTITLE1=High Sierra
TTITLE2=Do I Ever Cross Your Mind
TTITLE3=After The Gold Rush
TTITLE4=The Blue Train
TTITLE5=I Feel The Blues Movin' In
TTITLE6=You'll Never Be The Sun
TTITLE7=He Road All The Way To Texas
TTITLE8=Feels Like Home
TTITLE9=When We're Gone, Long Gone
EXTD=
EXTT0=
EXTT1=
EXTT2=
EXTT3=
EXTT4=
EXTT5=
EXTT6=
EXTT7=
EXTT8=
EXTT9=
PLAYORDER=
